<?xml version="1.0" encoding="utf-8"?>
<!-- Generator: Adobe Illustrator 19.2.0, SVG Export Plug-In . SVG Version: 6.00 Build 0)  -->
<svg version="1.1" id="Capa_1" xmlns="http://www.w3.org/2000/svg" xmlns:xlink="http://www.w3.org/1999/xlink" x="0px" y="0px"
	 viewBox="0 0 78 78" style="enable-background:new 0 0 78 78;" xml:space="preserve">
<style type="text/css">
	.st0{fill:#0E7983;}
</style>
<g id="Primer_plano">
	<g>
		<path class="st0" d="M45,49.4c0.2-0.7,0.4-1.3,0.6-2H29.9c-0.3,1.2-0.6,2.3-1.1,3.7c-1.7,3.3-4,4.1-5.4,4.1c-0.4,0-3.6,0-3.6-4.7
			c0-4.1,2.9-15.9,5.3-20.7c2.3-4.4,4.5-4.9,5.5-4.9c0.5,0,3.4,0,3.4,4.3c0,1-0.2,2.1-0.5,3.5h19.4c0.2-0.9,0.2-1.4,0.2-2.1
			c0.1-13.1-14.9-13.9-21.9-13.9C22.6,16.7,12,18.4,6,28.1c-3.2,5.1-5.4,14.6-5.4,19.8c0,14.1,12.4,15.9,22.7,15.9
			c3,0,14.1,0,21.1-7.4C44.2,54.2,44.3,51.8,45,49.4"/>
		<path class="st0" d="M76.6,51c-1.8,7.1-9,12.7-16,12.7c-7,0-11.2-5.7-9.4-12.6c1.8-7.1,9-12.7,16-12.7
			C74.1,38.2,78.4,43.9,76.6,51"/>
	</g>
</g>
<g id="titulo">
</g>
</svg>
