<svg xmlns="http://www.w3.org/2000/svg" width="78" height="78" viewBox="0 0 78 78"><path fill="#0E7983" d="M77 27v-.1c0-.1 0-.2-.1-.3v-.2c0-.1-.1-.2-.1-.2 0-.1 0-.1-.1-.2l-.1-.2-.1-.2-.1-.2-.1-.1c0-.1-.1-.1-.2-.2l-.1-.1-.2-.2c-.1 0-.1-.1-.1-.1h-.1l-34.8-23.2c-1.1-.7-2.5-.7-3.6 0l-34.7 23.2h-.1c-.1 0-.1.1-.1.1-.1 0-.1.1-.2.2l-.1.1-.2.2-.1.1-.1.2-.1.2-.1.2-.1.2c0 .1-.1.2-.1.2v.2c0 .1 0 .2-.1.3v24.2c0 .1 0 .2.1.3v.2c0 .1.1.2.1.2 0 .1 0 .1.1.2l.1.2s.1.1.1.2l.1.2c0 .1.1.1.1.1 0 .1.1.1.2.2l.1.1.2.2.1.1h.1l34.7 23.2c.5.4 1.2.5 1.8.5.6 0 1.3-.2 1.8-.5l34.7-23.2h.1c.1 0 .1-.1.1-.1.1 0 .1-.1.2-.2l.1-.1.2-.2.1-.1.1-.2s.1-.1.1-.2l.1-.2c0-.1 0-.1.1-.2 0-.1.1-.2.1-.2v-.2c0-.1 0-.2.1-.3v-23.7c.1-.1.1-.3.1-.4zm-34.7-16.6l25.6 17.1-11.4 7.6-14.2-9.5v-15.2zm-6.6 0v15.2l-14.2 9.5-11.4-7.6 25.6-17.1zm-28.2 23.1l8.2 5.5-8.2 5.5v-11zm28.2 34.1l-25.6-17 11.4-7.6 14.2 9.5v15.1zm3.3-20.9l-11.6-7.7 11.6-7.7 11.5 7.7-11.5 7.7zm3.3 20.9v-15.2l14.2-9.5 11.4 7.6-25.6 17.1zm28.2-23.1l-8.2-5.5 8.2-5.5v11z"/></svg>