<?xml version="1.0" encoding="utf-8"?>
<!-- Generator: Adobe Illustrator 19.2.0, SVG Export Plug-In . SVG Version: 6.00 Build 0)  -->
<svg version="1.1" id="Capa_1" xmlns="http://www.w3.org/2000/svg" xmlns:xlink="http://www.w3.org/1999/xlink" x="0px" y="0px"
	 viewBox="0 0 78 78" style="enable-background:new 0 0 78 78;" xml:space="preserve">
<style type="text/css">
	.st0{fill:#0E7983;}
</style>
<path class="st0" d="M77,27v-0.1c0-0.1,0-0.2-0.1-0.3v-0.2c0-0.1-0.1-0.2-0.1-0.2c0-0.1,0-0.1-0.1-0.2l-0.1-0.2l-0.1-0.2l-0.1-0.2
	l-0.1-0.1c0-0.1-0.1-0.1-0.2-0.2L76,25l-0.2-0.2c-0.1,0-0.1-0.1-0.1-0.1h-0.1L40.8,1.5c-1.1-0.7-2.5-0.7-3.6,0L2.5,24.7H2.4
	c-0.1,0-0.1,0.1-0.1,0.1c-0.1,0-0.1,0.1-0.2,0.2L2,25.1l-0.2,0.2l-0.1,0.1l-0.1,0.2l-0.1,0.2L1.4,26l-0.1,0.2c0,0.1-0.1,0.2-0.1,0.2
	v0.2c0,0.1,0,0.2-0.1,0.3v24.2c0,0.1,0,0.2,0.1,0.3v0.2c0,0.1,0.1,0.2,0.1,0.2c0,0.1,0,0.1,0.1,0.2l0.1,0.2c0,0,0.1,0.1,0.1,0.2
	l0.1,0.2c0,0.1,0.1,0.1,0.1,0.1c0,0.1,0.1,0.1,0.2,0.2L2.1,53l0.2,0.2l0.1,0.1h0.1l34.7,23.2c0.5,0.4,1.2,0.5,1.8,0.5
	s1.3-0.2,1.8-0.5l34.7-23.2h0.1c0.1,0,0.1-0.1,0.1-0.1c0.1,0,0.1-0.1,0.2-0.2l0.1-0.1l0.2-0.2l0.1-0.1l0.1-0.2c0,0,0.1-0.1,0.1-0.2
	l0.1-0.2c0-0.1,0-0.1,0.1-0.2c0-0.1,0.1-0.2,0.1-0.2v-0.2c0-0.1,0-0.2,0.1-0.3V27.4C77,27.3,77,27.1,77,27z M42.3,10.4l25.6,17.1
	l-11.4,7.6l-14.2-9.5C42.3,25.6,42.3,10.4,42.3,10.4z M35.7,10.4v15.2l-14.2,9.5l-11.4-7.6C10.1,27.5,35.7,10.4,35.7,10.4z
	 M7.5,33.5l8.2,5.5l-8.2,5.5V33.5z M35.7,67.6l-25.6-17L21.5,43l14.2,9.5V67.6z M39,46.7L27.4,39L39,31.3L50.5,39L39,46.7z
	 M42.3,67.6V52.4l14.2-9.5l11.4,7.6C67.9,50.5,42.3,67.6,42.3,67.6z M70.5,44.5L62.3,39l8.2-5.5V44.5z"/>
</svg>
