<?xml version="1.0" encoding="utf-8"?>
<!-- Generator: Adobe Illustrator 19.2.0, SVG Export Plug-In . SVG Version: 6.00 Build 0)  -->
<svg version="1.1" id="Capa_1" xmlns="http://www.w3.org/2000/svg" xmlns:xlink="http://www.w3.org/1999/xlink" x="0px" y="0px"
	 viewBox="0 0 78 78" style="enable-background:new 0 0 78 78;" xml:space="preserve">
<style type="text/css">
	.st0{fill:#0E7983;}
	.st1{fill:#FFFFFF;}
</style>
<path class="st0" d="M71.4,1H6.6C3.5,1,1,3.5,1,6.5v65c0,3,2.5,5.5,5.6,5.5h64.8c3.1,0,5.6-2.5,5.6-5.5v-65C77,3.5,74.5,1,71.4,1z"
	/>
<path class="st1" d="M12.3,29.5h11.3v36.3H12.3C12.3,65.8,12.3,29.5,12.3,29.5z M17.9,11.5c3.6,0,6.5,2.9,6.5,6.5s-2.9,6.5-6.5,6.5
	s-6.5-2.9-6.5-6.5S14.3,11.5,17.9,11.5"/>
<path class="st1" d="M30.6,29.5h10.8v5h0.2c1.5-2.9,5.2-5.9,10.7-5.9c11.4,0,13.5,7.5,13.5,17.3v19.9H54.5V48.1
	c0-4.2-0.1-9.6-5.9-9.6c-5.9,0-6.8,4.6-6.8,9.3v17.9H30.6C30.6,65.7,30.6,29.5,30.6,29.5z"/>
</svg>
