<svg xmlns="http://www.w3.org/2000/svg" width="78" height="78" viewBox="0 0 78 78"><path fill="#0E7983" d="M71.4 1h-64.8c-3.1 0-5.6 2.5-5.6 5.5v65c0 3 2.5 5.5 5.6 5.5h64.8c3.1 0 5.6-2.5 5.6-5.5v-65c0-3-2.5-5.5-5.6-5.5z"/><path fill="#fff" d="M12.3 29.5h11.3v36.3h-11.3v-36.3zm5.6-18c3.6 0 6.5 2.9 6.5 6.5s-2.9 6.5-6.5 6.5-6.5-2.9-6.5-6.5 2.9-6.5 6.5-6.5"/><path fill="#fff" d="M30.6 29.5h10.8v5h.2c1.5-2.9 5.2-5.9 10.7-5.9 11.4 0 13.5 7.5 13.5 17.3v19.9h-11.3v-17.7c0-4.2-.1-9.6-5.9-9.6-5.9 0-6.8 4.6-6.8 9.3v17.9h-11.2v-36.2z"/></svg>