<?xml version="1.0" encoding="utf-8"?>
<!-- Generator: Adobe Illustrator 16.0.0, SVG Export Plug-In . SVG Version: 6.00 Build 0)  -->
<!DOCTYPE svg PUBLIC "-//W3C//DTD SVG 1.1//EN" "http://www.w3.org/Graphics/SVG/1.1/DTD/svg11.dtd">
<svg version="1.1" id="Layer_1" xmlns="http://www.w3.org/2000/svg" xmlns:xlink="http://www.w3.org/1999/xlink" x="0px" y="0px"
	 width="78px" height="78px" viewBox="0 0 78 78" enable-background="new 0 0 78 78" xml:space="preserve">
<path id="runroom" fill="#0E7983" d="M57,39.7c0,0,0.1,0.2,0.2,0.2c6.3,2.7,8.4,7.8,8.4,14.2c0.1,4.7,0.4,9.3,0.7,14
	c0.2,2.6,0.8,5.1,3.1,6.9c0.4,0.3,0.4,1.1,0.7,2c-4.2,0-8.1,0.1-12-0.1c-0.5,0-1.3-1.2-1.4-1.9c-0.4-2.7-0.6-5.4-0.8-8.1
	c-0.3-3.9-0.4-7.8-0.8-11.7c-0.6-7.2-4-10.5-11.3-10.7c-7.3-0.2-14.7-0.1-22-0.1c-4.5,0-9.1,0-13.8,0C8.2,30,8.2,15.7,8.2,1
	c0.7,0,1.4,0,2.1,0C21.2,1,32.1,0.9,43,1.1c3.5,0.1,7.1,0.5,10.5,1.4c7.5,2,12.2,6.9,13.3,14.7c0.9,6.6,0.4,12.9-4.5,18
	C60.7,37,58.8,38.3,57,39.7z"/>
</svg>
