<?xml version="1.0" encoding="utf-8"?>
<!-- Generator: Adobe Illustrator 19.2.0, SVG Export Plug-In . SVG Version: 6.00 Build 0)  -->
<svg version="1.1" id="Capa_1" xmlns="http://www.w3.org/2000/svg" xmlns:xlink="http://www.w3.org/1999/xlink" x="0px" y="0px"
	 viewBox="0 0 78 78" style="enable-background:new 0 0 78 78;" xml:space="preserve">
<style type="text/css">
	.st0{fill:#0E7983;}
</style>
<g>
	<g>
		<g>
			<path class="st0" d="M26.4,48.1c-4,0-6.6,3-6.6,8c0,5.3,3.7,12.7,15.2,12.7c7.5,0,14.6-4.4,15.7-13H33.3
				C33.3,50.4,29.8,48.1,26.4,48.1z M77,50.1V1.4H1v75.2h76V54.7h-9.6c-4.1,11-16.8,18.1-31.3,18.1c-15.2,0-22.9-8.6-22.9-19.3
				c0-9.6,6.9-15.8,16.3-15.8c2.9,0,12.6,1.1,14.3,12.4h5.8C48.5,40,40.1,31,40.1,21.7c0-11.3,8.1-16.1,18.7-16.1
				c4.3,0,7,0.5,9.6,1.4v7.7h-4.4c0-3.7-1.1-5.5-3.7-5.5c-2,0-3.2,1.7-3.2,3.7c0,3.1,1.6,5.7,3.2,9.2l2.5,5.2
				c3,6.4,5.8,14.1,5.8,19.9c0,1-0.1,2-0.2,2.9H77z"/>
		</g>
	</g>
</g>
</svg>
