<?xml version="1.0" encoding="utf-8"?>
<!-- Generator: Adobe Illustrator 16.0.0, SVG Export Plug-In . SVG Version: 6.00 Build 0)  -->
<!DOCTYPE svg PUBLIC "-//W3C//DTD SVG 1.1//EN" "http://www.w3.org/Graphics/SVG/1.1/DTD/svg11.dtd">
<svg version="1.1" id="Layer_1" xmlns="http://www.w3.org/2000/svg" xmlns:xlink="http://www.w3.org/1999/xlink" x="0px" y="0px"
	 width="78px" height="78px" viewBox="0 0 78 78" enable-background="new 0 0 78 78" xml:space="preserve">
<path fill-rule="evenodd" clip-rule="evenodd" fill="#0E7983" d="M25.5,51c7.5,0.7,13.3,4.7,19.3,8.4c4.3,2.6,8.9,4.1,14,4.1
	c2.4,0,4.6-0.8,6.5-2.4c0.8-0.7,1.1-0.5,1.4,0.4C68.5,69,62.5,76.8,54.8,77c-3.9,0.1-7.2-1.3-10.3-3.3c-3.5-2.3-6.9-4.9-10.4-7.2
	c-6.5-4.3-13.7-5.8-21.4-4.9c-2.2,0.3-2.5,0.1-2.6-2.3c-0.3-4.5,1.3-8.1,4.3-11.4c8.5-9.3,16.9-18.7,24.8-28.5
	c0.7-0.8,1.3-1.7,2-2.6c0.2-0.2,0.6-0.5,0.4-0.8c-0.2-0.4-0.6-0.2-0.9-0.2c-3.8,0.2-7.5,0.4-11.3,0.3c-1.9,0-3.8-0.3-5.6-1.1
	c-3-1.3-4-3.6-2.8-6.7c0.9-2.5,2.3-4.7,3.9-6.9c0.4-0.6,0.8-0.8,1.5-0.4c3.5,1.8,7.3,2.3,11.2,2.6c8.1,0.6,16.2,0.1,24.2-1.5
	c1-0.2,1.1,0.3,1.2,1c0.5,3.7-0.8,6.7-3.1,9.4c-8.6,9.7-16.8,19.8-26,29C30.8,44.5,28,47.4,25.5,51z"/>
</svg>
