<svg xmlns="http://www.w3.org/2000/svg" width="78" height="78" viewBox="0 0 78 78"><path fill="#0E7983" d="M77 38.9c0 20.9-17 38.1-38 38.1s-38-17.2-38-38.1c0-20.9 17-37.9 38-37.9s38 17 38 37.9zm-28.5 31c13.1-4.6 22.6-16.6 22.6-31 0-17.7-14.3-32-32.1-32-17.7 0-32.1 14.3-32.1 32 0 14.5 9.7 26.6 23 31v-6.1c0-3.7 1.5-5.5 3.1-6.6-8.2-.9-17.1-3.8-17.1-18.1 0-4 1.4-7.3 3.8-9.8-.4-1-1.6-4.6.4-9.7 0 0 3.1-1 10.1 3.8 2.9-.8 6-1.2 9.1-1.2 3.2 0 6.2.4 9.2 1.2 7-4.7 10.1-3.8 10.1-3.8 2 5 .8 8.7.4 9.7 2.4 2.6 3.8 5.8 3.8 9.8 0 14.2-8.8 17.2-17.1 18.1 1.5 1.1 3.1 3 3.1 6.6v6.1h-.3z"/></svg>