<?xml version="1.0" encoding="utf-8"?>
<!-- Generator: Adobe Illustrator 19.2.0, SVG Export Plug-In . SVG Version: 6.00 Build 0)  -->
<svg version="1.1" id="Capa_1" xmlns="http://www.w3.org/2000/svg" xmlns:xlink="http://www.w3.org/1999/xlink" x="0px" y="0px"
	 viewBox="0 0 128 128" style="enable-background:new 0 0 128 128;" xml:space="preserve">
<style type="text/css">
	.st0{fill:#341C00;}
</style>
<path class="st0" d="M128,45.9c-0.6-1.3-1.3-2-3.3-2c-16.4,0-40.6,0-40.6,0l-17-42c-0.6-1.3-1.9-2-3.3-2c-1.3,0-2.6,0.7-3.3,2
	l-15.7,42H3.5c-1.3,0-2.6,0.7-3.3,2c-0.6,1.3,0,3.3,1.3,4C13.4,61,34.3,76.7,34.3,76.7s-9.2,30.8-12.5,46.6c0,1.3,0,3.3,1.3,4
	c1.3,0.7,2.6,1.3,3.9,0C40.9,117.4,63.8,99,63.8,99l36,27.5c1.3,0.7,2.6,0.7,3.9,0s1.9-2.6,1.3-4L94,76.1l32.7-26.2
	C128,49.2,128,47.2,128,45.9L128,45.9z"/>
</svg>
