<?xml version="1.0" encoding="utf-8"?>
<!-- Generator: Adobe Illustrator 16.0.0, SVG Export Plug-In . SVG Version: 6.00 Build 0)  -->
<!DOCTYPE svg PUBLIC "-//W3C//DTD SVG 1.1//EN" "http://www.w3.org/Graphics/SVG/1.1/DTD/svg11.dtd">
<svg version="1.1" id="Layer_1" xmlns="http://www.w3.org/2000/svg" xmlns:xlink="http://www.w3.org/1999/xlink" x="0px" y="0px"
	 width="38px" height="31px" viewBox="0 0 38 31" enable-background="new 0 0 38 31" xml:space="preserve">
<path fill="#E33D00" d="M37.1,4.3c-1.3,0.6-2.8,1-4.3,1.2c1.5-0.9,2.7-2.4,3.3-4.1c-1.4,0.9-3,1.5-4.7,1.8C30,1.7,28.1,0.8,26,0.8
	c-4.1,0-7.4,3.3-7.4,7.4c0,0.6,0.1,1.1,0.2,1.7C12.5,9.6,7.1,6.6,3.4,2.1c-0.6,1.1-1,2.4-1,3.7c0,2.6,1.3,4.9,3.3,6.2
	c-1.2,0-2.4-0.4-3.4-0.9c0,0,0,0.1,0,0.1c0,3.6,2.6,6.6,6,7.3c-0.6,0.2-1.3,0.3-2,0.3c-0.5,0-0.9,0-1.4-0.1c0.9,3,3.7,5.1,6.9,5.2
	c-2.5,2-5.8,3.2-9.2,3.2c-0.6,0-1.2,0-1.8-0.1c3.3,2.1,7.2,3.3,11.4,3.3c13.7,0,21.2-11.3,21.2-21.2c0-0.3,0-0.6,0-1
	C34.9,7.1,36.1,5.8,37.1,4.3z"/>
</svg>
