<?xml version="1.0" encoding="utf-8"?>
<!-- Generator: Adobe Illustrator 16.0.0, SVG Export Plug-In . SVG Version: 6.00 Build 0)  -->
<!DOCTYPE svg PUBLIC "-//W3C//DTD SVG 1.1//EN" "http://www.w3.org/Graphics/SVG/1.1/DTD/svg11.dtd">
<svg version="1.1" id="Layer_1" xmlns="http://www.w3.org/2000/svg" xmlns:xlink="http://www.w3.org/1999/xlink" x="0px" y="0px"
	 width="78px" height="78px" viewBox="0 0 78 78" enable-background="new 0 0 78 78" xml:space="preserve">
<path id="Twitter" fill="#0E7983" d="M77,15.2c-2.7,1.2-5.9,2.1-9,2.5c3.1-1.9,5.7-5,6.9-8.5c-2.9,1.9-6.3,3.1-9.8,3.7
	c-2.9-3.1-6.9-5-11.3-5c-8.6,0-15.5,6.8-15.5,15.3c0,1.2,0.2,2.3,0.4,3.5C25.5,26.2,14.2,20,6.4,10.7c-1.3,2.3-2.1,5-2.1,7.6
	c0,5.4,2.7,10.1,6.9,12.8c-2.5,0-5-0.8-7.1-1.9v0.2c0,7.4,5.4,13.7,12.6,15.1c-1.3,0.4-2.7,0.6-4.2,0.6c-1,0-1.9,0-2.9-0.2
	c1.9,6.2,7.7,10.5,14.5,10.7c-5.2,4.1-12.2,6.6-19.3,6.6c-1.3,0-2.5,0-3.8-0.2C7.9,66.5,16.1,69,24.9,69c28.7,0,44.4-23.4,44.4-43.8
	c0-0.6,0-1.2,0-2.1C72.4,21,74.9,18.3,77,15.2z"/>
</svg>
