<svg xmlns="http://www.w3.org/2000/svg" width="78" height="78" viewBox="0 0 78 78"><path fill="#0E7983" d="M77 15.2c-2.7 1.2-5.9 2.1-9 2.5 3.1-1.9 5.7-5 6.9-8.5-2.9 1.9-6.3 3.1-9.8 3.7-2.9-3.1-6.9-5-11.3-5-8.6 0-15.5 6.8-15.5 15.3 0 1.2.2 2.3.4 3.5-13.2-.5-24.5-6.7-32.3-16-1.3 2.3-2.1 5-2.1 7.6 0 5.4 2.7 10.1 6.9 12.8-2.5 0-5-.8-7.1-1.9v.2c0 7.4 5.4 13.7 12.6 15.1-1.3.4-2.7.6-4.2.6-1 0-1.9 0-2.9-.2 1.9 6.2 7.7 10.5 14.5 10.7-5.2 4.1-12.2 6.6-19.3 6.6-1.3 0-2.5 0-3.8-.2 6.9 4.5 15.1 7 23.9 7 28.7 0 44.4-23.4 44.4-43.8v-2.1c3.1-2.1 5.6-4.8 7.7-7.9z"/></svg>