<svg xmlns="http://www.w3.org/2000/svg" width="78" height="78" viewBox="0 0 78 78"><path fill-rule="evenodd" clip-rule="evenodd" fill="#0E7983" d="M25.5 51c7.5.7 13.3 4.7 19.3 8.4 4.3 2.6 8.9 4.1 14 4.1 2.4 0 4.6-.8 6.5-2.4.8-.7 1.1-.5 1.4.4 1.8 7.5-4.2 15.3-11.9 15.5-3.9.1-7.2-1.3-10.3-3.3l-10.4-7.2c-6.5-4.3-13.7-5.8-21.4-4.9-2.2.3-2.5.1-2.6-2.3-.3-4.5 1.3-8.1 4.3-11.4 8.5-9.3 16.9-18.7 24.8-28.5.7-.8 1.3-1.7 2-2.6.2-.2.6-.5.4-.8-.2-.4-.6-.2-.9-.2-3.8.2-7.5.4-11.3.3-1.9 0-3.8-.3-5.6-1.1-3-1.3-4-3.6-2.8-6.7.9-2.5 2.3-4.7 3.9-6.9.4-.6.8-.8 1.5-.4 3.5 1.8 7.3 2.3 11.2 2.6 8.1.6 16.2.1 24.2-1.5 1-.2 1.1.3 1.2 1 .5 3.7-.8 6.7-3.1 9.4-8.6 9.7-16.8 19.8-26 29-3.1 3-5.9 5.9-8.4 9.5z"/></svg>